<mxfile host="65bd71144e">
    <diagram id="bpbkTxAe3MsM5qXTKhsR" name="Page-1">
        <mxGraphModel dx="2147" dy="372" grid="1" gridSize="10" guides="1" tooltips="1" connect="1" arrows="1" fold="1" page="1" pageScale="1" pageWidth="1100" pageHeight="850" math="0" shadow="0">
            <root>
                <mxCell id="0"/>
                <mxCell id="1" parent="0"/>
                <mxCell id="154" value="Memento Design Pattern" style="text;html=1;align=center;verticalAlign=middle;resizable=1;points=[];autosize=1;strokeColor=#C73500;fillColor=#fa6800;fontColor=#000000;fontSize=25;movable=1;rotatable=1;deletable=1;editable=1;connectable=1;" parent="1" vertex="1">
                    <mxGeometry x="-1065" y="40" width="300" height="40" as="geometry"/>
                </mxCell>
                <mxCell id="201" value="&lt;span style=&quot;font-size: 14px;&quot;&gt;&amp;nbsp;Without violating encapsulation, capture and externalize an object's internal state so that the object can be restored to this state later&lt;/span&gt;" style="shape=note2;boundedLbl=1;whiteSpace=wrap;html=1;size=25;verticalAlign=top;align=left;movable=1;resizable=1;rotatable=1;deletable=1;editable=1;connectable=1;" parent="1" vertex="1">
                    <mxGeometry x="-590" y="40" width="510" height="70" as="geometry"/>
                </mxCell>
                <mxCell id="387" value="Caretaker" style="swimlane;fontStyle=1;align=center;verticalAlign=top;childLayout=stackLayout;horizontal=1;startSize=26;horizontalStack=0;resizeParent=1;resizeParentMax=0;resizeLast=0;collapsible=1;marginBottom=0;" parent="1" vertex="1">
                    <mxGeometry x="-370" y="160" width="240" height="110" as="geometry"/>
                </mxCell>
                <mxCell id="388" value="- mementos : List&lt;Memento&gt;" style="text;strokeColor=none;fillColor=none;align=left;verticalAlign=top;spacingLeft=4;spacingRight=4;overflow=hidden;rotatable=0;points=[[0,0.5],[1,0.5]];portConstraint=eastwest;" parent="387" vertex="1">
                    <mxGeometry y="26" width="240" height="26" as="geometry"/>
                </mxCell>
                <mxCell id="389" value="" style="line;strokeWidth=1;fillColor=none;align=left;verticalAlign=middle;spacingTop=-1;spacingLeft=3;spacingRight=3;rotatable=0;labelPosition=right;points=[];portConstraint=eastwest;strokeColor=inherit;" parent="387" vertex="1">
                    <mxGeometry y="52" width="240" height="8" as="geometry"/>
                </mxCell>
                <mxCell id="390" value="+ AddMemento(memento:Memento): void&#10;+ GetMemento(index:int):Memento" style="text;strokeColor=none;fillColor=none;align=left;verticalAlign=top;spacingLeft=4;spacingRight=4;overflow=hidden;rotatable=0;points=[[0,0.5],[1,0.5]];portConstraint=eastwest;" parent="387" vertex="1">
                    <mxGeometry y="60" width="240" height="50" as="geometry"/>
                </mxCell>
                <mxCell id="391" value="Memento" style="swimlane;fontStyle=1;align=center;verticalAlign=top;childLayout=stackLayout;horizontal=1;startSize=26;horizontalStack=0;resizeParent=1;resizeParentMax=0;resizeLast=0;collapsible=1;marginBottom=0;" parent="1" vertex="1">
                    <mxGeometry x="-680" y="360" width="200" height="60" as="geometry"/>
                </mxCell>
                <mxCell id="392" value="-state:string" style="text;strokeColor=none;fillColor=none;align=left;verticalAlign=top;spacingLeft=4;spacingRight=4;overflow=hidden;rotatable=0;points=[[0,0.5],[1,0.5]];portConstraint=eastwest;" parent="391" vertex="1">
                    <mxGeometry y="26" width="200" height="26" as="geometry"/>
                </mxCell>
                <mxCell id="393" value="" style="line;strokeWidth=1;fillColor=none;align=left;verticalAlign=middle;spacingTop=-1;spacingLeft=3;spacingRight=3;rotatable=0;labelPosition=right;points=[];portConstraint=eastwest;strokeColor=inherit;" parent="391" vertex="1">
                    <mxGeometry y="52" width="200" height="8" as="geometry"/>
                </mxCell>
                <mxCell id="395" value="Client" style="html=1;" parent="1" vertex="1">
                    <mxGeometry x="-1030" y="162" width="110" height="50" as="geometry"/>
                </mxCell>
                <mxCell id="396" value="" style="endArrow=diamondThin;endFill=0;endSize=24;html=1;entryX=0.082;entryY=1.023;entryDx=0;entryDy=0;entryPerimeter=0;" parent="1" target="390" edge="1">
                    <mxGeometry width="160" relative="1" as="geometry">
                        <mxPoint x="-504" y="360" as="sourcePoint"/>
                        <mxPoint x="-490" y="260" as="targetPoint"/>
                        <Array as="points">
                            <mxPoint x="-504" y="320"/>
                            <mxPoint x="-354" y="320"/>
                        </Array>
                    </mxGeometry>
                </mxCell>
                <mxCell id="397" value="Use" style="endArrow=open;endSize=12;dashed=1;html=1;" parent="1" edge="1">
                    <mxGeometry width="160" relative="1" as="geometry">
                        <mxPoint x="-920" y="187" as="sourcePoint"/>
                        <mxPoint x="-800" y="186.5" as="targetPoint"/>
                    </mxGeometry>
                </mxCell>
                <mxCell id="399" value="creates" style="endArrow=open;endSize=12;dashed=1;html=1;entryX=0.25;entryY=0;entryDx=0;entryDy=0;exitX=0.426;exitY=1.012;exitDx=0;exitDy=0;exitPerimeter=0;" parent="1" source="386" target="391" edge="1">
                    <mxGeometry width="160" relative="1" as="geometry">
                        <mxPoint x="-860" y="350" as="sourcePoint"/>
                        <mxPoint x="-700" y="350" as="targetPoint"/>
                    </mxGeometry>
                </mxCell>
                <mxCell id="400" value="Use" style="endArrow=open;endSize=12;dashed=1;html=1;entryX=0.001;entryY=0.107;entryDx=0;entryDy=0;entryPerimeter=0;" parent="1" target="387" edge="1">
                    <mxGeometry width="160" relative="1" as="geometry">
                        <mxPoint x="-920" y="170" as="sourcePoint"/>
                        <mxPoint x="-760" y="170" as="targetPoint"/>
                    </mxGeometry>
                </mxCell>
                <mxCell id="383" value="Originator" style="swimlane;fontStyle=1;align=center;verticalAlign=top;childLayout=stackLayout;horizontal=1;startSize=26;horizontalStack=0;resizeParent=1;resizeParentMax=0;resizeLast=0;collapsible=1;marginBottom=0;" parent="1" vertex="1">
                    <mxGeometry x="-800" y="160" width="200" height="150" as="geometry"/>
                </mxCell>
                <mxCell id="384" value="- state: string" style="text;strokeColor=none;fillColor=none;align=left;verticalAlign=top;spacingLeft=4;spacingRight=4;overflow=hidden;rotatable=0;points=[[0,0.5],[1,0.5]];portConstraint=eastwest;" parent="383" vertex="1">
                    <mxGeometry y="26" width="200" height="26" as="geometry"/>
                </mxCell>
                <mxCell id="385" value="" style="line;strokeWidth=1;fillColor=none;align=left;verticalAlign=middle;spacingTop=-1;spacingLeft=3;spacingRight=3;rotatable=0;labelPosition=right;points=[];portConstraint=eastwest;strokeColor=inherit;" parent="383" vertex="1">
                    <mxGeometry y="52" width="200" height="8" as="geometry"/>
                </mxCell>
                <mxCell id="386" value="+SetState(state:string): void&#10;+GetState():string&#10;&#10;+CreateMomento():Memento&#10;+Restore(memento:Memento):void" style="text;strokeColor=none;fillColor=none;align=left;verticalAlign=top;spacingLeft=4;spacingRight=4;overflow=hidden;rotatable=0;points=[[0,0.5],[1,0.5]];portConstraint=eastwest;" parent="383" vertex="1">
                    <mxGeometry y="60" width="200" height="90" as="geometry"/>
                </mxCell>
                <mxCell id="401" value="_undoStack" style="text;html=1;align=center;verticalAlign=middle;resizable=0;points=[];autosize=1;strokeColor=none;fillColor=none;" vertex="1" parent="1">
                    <mxGeometry x="-875" y="655" width="90" height="30" as="geometry"/>
                </mxCell>
                <mxCell id="402" value="Player" style="text;html=1;align=center;verticalAlign=middle;resizable=0;points=[];autosize=1;strokeColor=none;fillColor=none;" vertex="1" parent="1">
                    <mxGeometry x="-700" y="655" width="60" height="30" as="geometry"/>
                </mxCell>
                <mxCell id="403" value="300" style="text;html=1;align=center;verticalAlign=middle;resizable=0;points=[];autosize=1;strokeColor=none;fillColor=none;" vertex="1" parent="1">
                    <mxGeometry x="-690" y="620" width="40" height="30" as="geometry"/>
                </mxCell>
                <mxCell id="405" value="100" style="text;html=1;align=center;verticalAlign=middle;resizable=0;points=[];autosize=1;strokeColor=none;fillColor=none;" vertex="1" parent="1">
                    <mxGeometry x="-850" y="610" width="40" height="30" as="geometry"/>
                </mxCell>
                <mxCell id="407" value="300" style="text;html=1;align=center;verticalAlign=middle;resizable=0;points=[];autosize=1;strokeColor=none;fillColor=none;" vertex="1" parent="1">
                    <mxGeometry x="-850" y="530" width="40" height="30" as="geometry"/>
                </mxCell>
                <mxCell id="408" value="_redoStack" style="text;html=1;align=center;verticalAlign=middle;resizable=0;points=[];autosize=1;strokeColor=none;fillColor=none;" vertex="1" parent="1">
                    <mxGeometry x="-560" y="655" width="80" height="30" as="geometry"/>
                </mxCell>
                <mxCell id="410" value="200" style="text;html=1;align=center;verticalAlign=middle;resizable=0;points=[];autosize=1;strokeColor=none;fillColor=none;" vertex="1" parent="1">
                    <mxGeometry x="-850" y="570" width="40" height="30" as="geometry"/>
                </mxCell>
            </root>
        </mxGraphModel>
    </diagram>
</mxfile>